<svg width="33" height="31" viewBox="0 0 33 31" fill="none" xmlns="http://www.w3.org/2000/svg">
<path d="M23.8865 12.7647C23.2434 13.4368 22.1717 13.4368 21.5287 12.7647L14.1588 5.07945L2.53497 17.2105L1.44679 16.1249C-0.482263 14.1088 -0.482263 10.8348 1.44679 8.8187L8.43755 1.51253C10.3666 -0.503565 13.4993 -0.503565 15.4283 1.51253L23.8865 10.3351C24.5295 11.0071 24.5295 12.0927 23.8865 12.7647ZM25.0406 9.11163C26.3266 10.4557 26.3266 12.6441 25.0406 13.9882C22.9467 16.1766 20.7373 14.3673 20.3746 13.9882L14.1752 7.5091L4.99163 17.1071C4.34861 17.7791 4.34861 18.8647 4.99163 19.5367C5.63465 20.2087 6.67337 20.2087 7.33288 19.5367L14.9502 11.5757L16.1208 12.7992L8.5035 20.7602C7.86048 21.4322 7.86048 22.5178 8.5035 23.1898C9.14652 23.8618 10.1852 23.8618 10.8447 23.1898L18.462 15.2288L19.6326 16.4523L12.0154 24.4132C11.3723 25.0853 11.3723 26.1709 12.0154 26.8429C12.6584 27.5149 13.6971 27.5149 14.3401 26.8429L21.9574 18.8819L23.128 20.1054L15.5107 28.0663C14.8677 28.7384 14.8677 29.8239 15.5107 30.496C16.1538 31.168 17.1925 31.168 17.8355 30.496L31.5532 16.1249C33.4823 14.1088 33.4823 10.8348 31.5532 8.8187L24.5625 1.51253C22.6664 -0.469102 19.5997 -0.503565 17.6706 1.40914L25.0406 9.11163Z" fill="white"/>
</svg>
